<?xml version="1.0" standalone="no"?>
<!DOCTYPE svg PUBLIC "-//W3C//DTD SVG 20010904//EN" "http://www.w3.org/TR/2001/REC-SVG-20010904/DTD/svg10.dtd">
<svg version="1.0" xmlns="http://www.w3.org/2000/svg" width="3931.000000pt" height="1142.000000pt"
        viewBox="0 0 3931.000000 1142.000000" preserveAspectRatio="xMidYMid meet">

        <g transform="translate(0.000000,1142.000000) scale(0.100000,-0.100000)" fill="#FFFE00" stroke="none">
                <path d="M23243 11399 c-110 -21 -198 -91 -250 -197 l-28 -57 -5 -1490 -5
-1490 -26 120 c-80 363 -183 655 -344 975 -441 880 -1144 1514 -2060 1857
-367 138 -681 210 -1130 260 -134 15 -349 17 -2020 19 -1028 2 -1863 0 -1855
-3 134 -51 215 -130 253 -250 16 -47 17 -152 17 -1173 0 -1223 2 -1168 -56
-1260 -31 -50 -101 -114 -154 -141 l-45 -24 -2515 -5 c-2756 -6 -2547 0 -2647
-67 -69 -46 -110 -94 -145 -171 l-29 -63 3 -412 3 -412 28 -56 c33 -68 109
-146 180 -185 l52 -29 2205 -5 c2321 -5 2238 -4 2309 -48 50 -30 123 -107 149
-157 l27 -50 0 -1195 0 -1195 -28 -54 c-37 -69 -103 -133 -175 -168 l-57 -28
-2210 -5 -2210 -5 -57 -28 c-76 -37 -167 -135 -196 -211 -21 -56 -22 -70 -22
-424 0 -319 2 -372 17 -412 35 -95 110 -177 206 -227 l52 -28 2520 -5 2520 -5
56 -26 c99 -47 170 -126 202 -226 15 -47 17 -155 17 -1190 0 -1102 -1 -1140
-20 -1196 -37 -111 -139 -213 -237 -236 -24 -6 139 -9 462 -8 l500 2 58 28
c112 56 188 156 208 276 5 32 9 617 9 1358 0 1259 1 1304 19 1353 43 113 151
211 260 237 69 16 460 18 547 2 161 -28 369 -143 458 -252 18 -23 117 -159
218 -302 527 -743 1264 -1748 1706 -2325 151 -197 246 -268 457 -343 l90 -32
1285 -6 c707 -3 3208 -3 5558 -1 4103 5 4270 6 4222 23 -64 22 -108 49 -189
113 -111 90 -142 141 -336 574 -265 591 -265 591 -343 674 -83 88 -192 161
-286 191 l-71 22 -1710 0 -1710 0 -70 -22 c-100 -32 -187 -87 -262 -167 -70
-74 -76 -86 -283 -531 -50 -107 -72 -156 -140 -300 -28 -60 -70 -150 -93 -200
l-42 -90 -5 5425 -5 5425 -23 47 c-32 64 -94 133 -149 165 -93 54 -61 53
-1373 52 -668 -1 -1234 -5 -1257 -10z m-4123 -2902 c442 -127 751 -521 821
-1047 16 -114 5 -342 -20 -442 -67 -267 -227 -500 -456 -663 -102 -73 -185
-115 -305 -153 -195 -64 -172 -63 -1190 -60 l-925 3 -58 28 c-76 38 -151 113
-185 184 l-27 58 0 930 0 930 34 63 c35 64 115 146 161 165 93 38 63 37 1075
34 l980 -3 95 -27z m3832 -7079 c-5 -5 -62 60 -128 143 -65 84 -173 221 -239
304 -66 84 -183 232 -260 330 -77 98 -169 215 -205 260 -36 46 -167 215 -292
377 -620 798 -608 781 -608 888 0 129 81 243 255 360 273 184 533 439 750 736
333 456 579 1013 706 1597 l24 109 3 -2548 c1 -1401 -2 -2552 -6 -2556z" />
                <path d="M31080 11396 c-108 -23 -189 -90 -239 -196 l-26 -55 -3 -703 -3 -704
1992 -4641 c1096 -2553 1998 -4662 2005 -4686 19 -62 17 -122 -6 -188 -28 -80
-64 -129 -118 -164 l-46 -29 2194 2 2195 3 65 31 c83 39 145 101 184 184 l31
65 0 1145 0 1145 -31 65 c-39 83 -101 145 -184 184 l-65 31 -2440 5 -2440 5
-56 28 c-70 34 -142 109 -177 185 l-27 57 -5 3985 -5 3985 -23 49 c-31 67 -82
127 -139 164 -101 65 -44 62 -1373 61 -892 0 -1219 -4 -1260 -13z" />
                <path d="M4155 11380 c-404 -23 -847 -83 -1220 -166 -785 -175 -1484 -557
-1940 -1061 -344 -380 -566 -771 -690 -1213 -144 -517 -171 -1252 -64 -1785
112 -559 421 -1117 835 -1504 259 -243 485 -397 842 -575 393 -197 732 -327
1167 -450 228 -64 416 -105 855 -186 212 -39 486 -91 610 -115 124 -24 331
-60 460 -80 412 -63 632 -114 817 -191 340 -140 443 -315 366 -619 -45 -180
-200 -341 -415 -431 -383 -162 -1031 -191 -1623 -73 -669 133 -1485 483 -2255
965 -226 142 -219 139 -335 139 -128 -1 -193 -24 -270 -98 -56 -55 -1208
-1707 -1254 -1801 -19 -37 -26 -70 -29 -136 -5 -105 14 -179 61 -242 68 -89
495 -409 842 -631 1002 -640 2085 -994 3337 -1092 264 -21 943 -32 1051 -17
45 6 152 16 237 23 875 62 1663 290 2231 647 230 144 390 273 580 469 430 444
703 1017 798 1673 56 390 58 870 5 1240 -79 550 -262 960 -638 1431 -446 559
-1115 987 -1944 1243 -486 151 -841 236 -1352 326 -388 68 -571 107 -840 179
-541 145 -992 344 -1133 500 -80 89 -108 186 -87 309 27 162 115 270 295 359
195 98 435 128 948 120 289 -4 353 -8 497 -30 731 -112 1361 -360 2149 -845
103 -63 145 -76 237 -70 90 6 183 47 242 109 23 24 316 434 651 911 679 967
650 920 638 1068 -12 141 -57 203 -262 355 -676 504 -1435 891 -2155 1100
-428 124 -896 203 -1385 234 -233 15 -687 21 -860 11z" />
                <path d="M28602 6585 c-31 -23 -64 -83 -122 -225 -28 -69 -55 -134 -60 -145
-11 -24 -59 -141 -130 -315 -28 -69 -55 -134 -60 -145 -5 -11 -27 -65 -50
-120 -23 -55 -45 -109 -50 -120 -5 -11 -25 -58 -44 -105 -19 -47 -56 -137 -82
-200 -90 -221 -125 -305 -134 -325 -5 -11 -25 -60 -45 -110 -20 -49 -40 -99
-45 -110 -77 -172 -78 -257 -1 -334 72 -72 72 -72 911 -69 565 3 744 6 773 16
48 17 106 68 123 109 27 63 18 102 -77 335 -171 420 -721 1743 -740 1779 -44
87 -112 121 -167 84z" />
        </g>
</svg>