<?xml version="1.0" standalone="no"?>
<!DOCTYPE svg PUBLIC "-//W3C//DTD SVG 20010904//EN" "http://www.w3.org/TR/2001/REC-SVG-20010904/DTD/svg10.dtd">
<svg version="1.0" xmlns="http://www.w3.org/2000/svg" width="923.000000pt" height="1142.000000pt"
    viewBox="0 0 923.000000 1142.000000" preserveAspectRatio="xMidYMid meet">

    <g transform="translate(0.000000,1142.000000) scale(0.100000,-0.100000)" fill="#6b41b6" stroke="none">
        <path d="M4155 11380 c-404 -23 -847 -83 -1220 -166 -785 -175 -1484 -557
-1940 -1061 -344 -380 -566 -771 -690 -1213 -144 -517 -171 -1252 -64 -1785
112 -559 421 -1117 835 -1504 259 -243 485 -397 842 -575 393 -197 732 -327
1167 -450 228 -64 416 -105 855 -186 212 -39 486 -91 610 -115 124 -24 331
-60 460 -80 412 -63 632 -114 817 -191 340 -140 443 -315 366 -619 -45 -180
-200 -341 -415 -431 -383 -162 -1031 -191 -1623 -73 -669 133 -1485 483 -2255
965 -226 142 -219 139 -335 139 -128 -1 -193 -24 -270 -98 -56 -55 -1208
-1707 -1254 -1801 -19 -37 -26 -70 -29 -136 -5 -105 14 -179 61 -242 68 -89
495 -409 842 -631 1002 -640 2085 -994 3337 -1092 264 -21 943 -32 1051 -17
45 6 152 16 237 23 875 62 1663 290 2231 647 230 144 390 273 580 469 430 444
703 1017 798 1673 56 390 58 870 5 1240 -79 550 -262 960 -638 1431 -446 559
-1115 987 -1944 1243 -486 151 -841 236 -1352 326 -388 68 -571 107 -840 179
-541 145 -992 344 -1133 500 -80 89 -108 186 -87 309 27 162 115 270 295 359
195 98 435 128 948 120 289 -4 353 -8 497 -30 731 -112 1361 -360 2149 -845
103 -63 145 -76 237 -70 90 6 183 47 242 109 23 24 316 434 651 911 679 967
650 920 638 1068 -12 141 -57 203 -262 355 -676 504 -1435 891 -2155 1100
-428 124 -896 203 -1385 234 -233 15 -687 21 -860 11z" />
    </g>
</svg>